<?xml version="1.0" standalone="no"?><!DOCTYPE svg PUBLIC "-//W3C//DTD SVG 1.1//EN" "http://www.w3.org/Graphics/SVG/1.1/DTD/svg11.dtd"><svg t="1628740247638" class="icon" viewBox="0 0 1024 1024" version="1.1" xmlns="http://www.w3.org/2000/svg" p-id="2018" xmlns:xlink="http://www.w3.org/1999/xlink" width="200" height="200"><defs><style type="text/css"></style></defs><path d="M553.056 85.521231l0.718769 0.704 354.461539 354.461538c23.069538 23.072 23.069538 60.477538 0 83.549539-22.833231 22.833231-59.707077 23.067077-82.83077 0.704l-0.718769-0.704L571.076923 270.621538V896c0 32.627692-26.449231 59.076923-59.076923 59.076923-32.300308 0-58.547692-25.922462-59.069538-58.099692L452.923077 896V270.624L199.310769 524.236308c-22.830769 22.833231-59.704615 23.067077-82.828307 0.704l-0.71877-0.704c-22.833231-22.833231-23.067077-59.707077-0.704-82.83077l0.704-0.718769 354.461539-354.461538c22.833231-22.833231 59.707077-23.067077 82.830769-0.704z" p-id="2019" fill="#bfbfbf"></path></svg>