<?xml version="1.0" standalone="no"?><!DOCTYPE svg PUBLIC "-//W3C//DTD SVG 1.1//EN" "http://www.w3.org/Graphics/SVG/1.1/DTD/svg11.dtd"><svg t="1628739680970" class="icon" viewBox="0 0 1024 1024" version="1.1" xmlns="http://www.w3.org/2000/svg" p-id="3177" xmlns:xlink="http://www.w3.org/1999/xlink" width="200" height="200"><defs><style type="text/css"></style></defs><path d="M504 154c-14.6 2.8-26.8 12.4-34.8 27l-4.2 8-0.6 259-0.4 258.8-104.6-104.2c-72.4-72.2-107.2-105.6-113.4-108.6-17.6-8.8-40.4-5-54.8 9.2-14.2 14.4-18 37.2-9.2 54.8 6.2 12.6 297.4 303.8 310 310 12 6.2 30 6.2 42 0 12.6-6.2 303.8-297.4 310-310 8.8-17.6 5-40.4-9.2-54.8-14.4-14.2-37.2-18-54.8-9.2-6.2 3-41 36.4-113.4 108.6L562 706.8l-0.4-258.8-0.6-259-4.2-8c-11-20.4-32-31.2-52.8-27z" p-id="3178" fill="#bfbfbf"></path></svg>