<svg t="1609226124454" class="icon" viewBox="0 0 1024 1024" version="1.1" xmlns="http://www.w3.org/2000/svg" p-id="2963" width="200" height="200"><path d="M501.765644 829.571767c2.687948 13.567737 7.167861 27.839461 13.311742 42.751172 6.079882 14.97571 15.167706 30.079417 27.071475 45.311122 11.903769 15.295704 26.879479 30.335412 44.991128 45.311122 18.04765 14.911711 41.087204 28.799442 68.990664 41.727191a616.116063 616.116063 0 0 1-64.382753 10.175803c-21.119591 2.687948-46.719095 4.927905-76.670514 6.591873-30.079417 1.727967-64.446751 2.55995-103.293999 2.55995-19.775617 0-42.623174-0.639988-68.478673-2.04796a2496.463631 2496.463631 0 0 1-163.64483-14.207725 2949.70285 2949.70285 0 0 1-74.622554-10.239802c-22.527564-3.391934-41.599194-6.783869-57.27889-10.175802-15.679696-3.391934-25.599504-6.783869-29.631426-10.175803-6.847867-5.375896-12.159764-22.015573-15.871692-49.855034-3.711928-27.839461-2.175958-63.806764 4.60791-107.90191 4.095921-25.087514 14.335722-44.287142 30.719405-57.470886a192.636268 192.636268 0 0 1 57.726882-31.551389c22.143571-7.807849 44.991128-14.783714 68.478673-20.927595 23.551544-6.079882 44.479138-14.911711 62.910781-26.431487 14.335722-8.831829 25.407508-17.471661 33.279355-25.983497 7.807849-8.447836 13.247743-16.767675 16.319684-24.959516a71.678611 71.678611 0 0 0 4.607911-25.407508c0-8.831829-0.319994-18.623639-1.02398-29.503428a56.318909 56.318909 0 0 0-16.383683-37.119281c-9.535815-9.215821-19.775617-18.55964-30.655406-28.031457a67.198698 67.198698 0 0 1-14.847712-19.839616 252.283112 252.283112 0 0 1-11.711773-25.983496 943.597718 943.597718 0 0 1-10.239802-32.575369 47.103087 47.103087 0 0 1-14.335722-7.103863 78.206485 78.206485 0 0 1-12.799752-14.271723 88.382288 88.382288 0 0 1-11.711773-26.431488 71.806609 71.806609 0 0 1-4.607911-31.551389 108.157904 108.157904 0 0 1 5.631891-25.471506 65.278735 65.278735 0 0 1 13.247743-21.375586c0-25.7915 1.407973-51.583001 4.095921-77.374501a513.910043 513.910043 0 0 1 14.335722-70.20664c6.783869-25.087514 17.407663-47.48708 31.679386-67.198698 12.991748-19.007632 27.455468-34.55933 43.519157-46.783093 15.99969-12.223763 32.127378-21.759578 48.51106-28.543447 16.383683-6.783869 32.895363-11.327781 49.599039-13.695735A345.593304 345.593304 0 0 1 411.783387 0.01984c19.775617 0 38.847247 2.367954 57.27889 7.103862 18.367644 4.799907 35.391314 10.879789 51.071011 18.367644 15.679696 7.423856 29.695425 15.935691 41.983186 25.407508 12.223763 9.535815 22.143571 19.007632 29.631426 28.543447 17.727657 21.69558 30.719405 45.631116 38.847247 71.678611 8.191841 26.175493 13.95173 51.135009 17.407663 74.878549 3.391934 27.135474 5.119901 54.590942 5.119901 82.430403a35.455313 35.455313 0 0 1 11.199783 13.247743c2.751947 4.735908 4.927905 10.879789 6.655871 18.303646 1.727967 7.487855 1.919963 16.959671 0.51199 28.479448-1.343974 14.271723-4.287917 25.599504-8.703831 34.111339a67.198698 67.198698 0 0 1-14.783714 19.839616 51.646999 51.646999 0 0 1-19.455623 11.199783c-3.391934 11.519777-6.783869 22.399566-10.239801 32.639367a252.283112 252.283112 0 0 1-11.775772 25.919498c-4.415914 8.447836-9.343819 15.103707-14.783714 19.839616a76.798512 76.798512 0 0 0-22.527563 32.575369l-6.655871 17.791655c-2.367954 6.399876-5.951885 13.055747-10.687793 19.839616-31.99938 48.895053-50.623019 92.990198-55.74292 132.349435-5.119901 39.359237-3.199938 77.694495 5.631891 115.005772z m408.952076-57.982877c10.239802 0 18.943633-3.07194 26.111494-9.215821a30.46341 30.46341 0 0 0 10.751792-24.383528 35.199318 35.199318 0 0 0-10.751792-25.983496 35.583311 35.583311 0 0 0-26.047495-10.687793h-220.859721a35.583311 35.583311 0 0 0-26.111494 10.687793 35.263317 35.263317 0 0 0-10.751792 25.983496c0 10.175803 3.583931 18.303645 10.751792 24.383528a38.783249 38.783249 0 0 0 26.111494 9.215821h220.795722z m-111.357842-257.53101a224.187656 224.187656 0 0 1 158.460929 65.150738c20.479603 20.351606 36.607291 44.095146 48.511061 71.23062 11.967768 27.135474 17.919653 55.998915 17.919652 86.526323 0 30.527409-5.951885 59.390849-17.919652 86.526324a230.395536 230.395536 0 0 1-120.125673 119.613682 215.291829 215.291829 0 0 1-86.910316 17.791656c-31.359392 0-60.670825-5.951885-87.934296-17.791656a231.419516 231.419516 0 0 1-71.550614-48.383062c-20.479603-20.351606-36.479293-44.159144-48.063069-71.23062a217.979777 217.979777 0 0 1-17.407663-86.526324c0-30.527409 5.759888-59.390849 17.407663-86.526323a223.099677 223.099677 0 0 1 207.547979-136.381358z" p-id="2964"></path></svg>