<svg xmlns="http://www.w3.org/2000/svg" width="16" height="16.636" viewBox="0 0 16 16.636">
  <defs>
    <style>
      .cls-1 {
        fill: #bfbfbf;
      }
    </style>
  </defs>
  <g id="组_102" data-name="组 102" transform="translate(-0.956 -0.683)">
    <path id="路径_157" data-name="路径 157" class="cls-1" d="M5.465,7.8a.173.173,0,0,0-.082-.117.122.122,0,0,0-.14.008q-1.472.891-2.871,1.9c-.815.627-1.358,1-1.415,1.372a.245.245,0,0,0,.033.117.284.284,0,0,0,.247.117A19.2,19.2,0,0,0,5.991,9.063a.14.14,0,0,0,.075-.117.163.163,0,0,0-.049-.134A1.587,1.587,0,0,1,5.465,7.8Zm1.6.9a1.14,1.14,0,0,0,0-2.275,1.14,1.14,0,0,0,0,2.275ZM6.362,6.019a.139.139,0,0,0,.139.017,1.544,1.544,0,0,1,1.135,0,.115.115,0,0,0,.058.009.139.139,0,0,0,.082-.026.148.148,0,0,0,.066-.125q-.017-1.735-.206-3.463a9.984,9.984,0,0,0-.2-1.188c-.1-.284-.09-.5-.37-.561-.28.059-.28.277-.371.561a26.9,26.9,0,0,0-.4,4.65A.171.171,0,0,0,6.362,6.019ZM11.783,9.7C10.96,9.08,9.891,8.361,8.9,7.751a.164.164,0,0,0-.14-.009.146.146,0,0,0-.082.117,1.635,1.635,0,0,1-.576,1,.169.169,0,0,0-.057.134.155.155,0,0,0,.073.125c1.925,1.079,4.2,2.226,4.854,2.241a.265.265,0,0,0,.239-.108.231.231,0,0,0,.033-.117c-.066-.376-.634-.777-1.457-1.431ZM7.225,9.465H6.962a.545.545,0,0,0-.527.552l-.263,6.75a.544.544,0,0,0,.527.552h.79a.544.544,0,0,0,.527-.552l-.262-6.75a.545.545,0,0,0-.527-.552Z"/>
    <path id="路径_158" data-name="路径 158" class="cls-1" d="M501.2,364.4a.1.1,0,0,0-.053-.079.1.1,0,0,0-.1,0c-.681.407-1.4.876-1.946,1.266-.549.415-.92.672-.964.92a.143.143,0,0,0,.018.079.2.2,0,0,0,.168.08,13.152,13.152,0,0,0,3.23-1.425.13.13,0,0,0,.053-.079.1.1,0,0,0-.035-.089,1.09,1.09,0,0,1-.372-.672Zm1.1.6a.761.761,0,1,0-.761-.761A.761.761,0,0,0,502.3,365Zm-.487-1.8a.094.094,0,0,0,.1.008,1.127,1.127,0,0,1,.779,0,.049.049,0,0,0,.035.009.164.164,0,0,0,.061-.018.109.109,0,0,0,.045-.088,22.039,22.039,0,0,0-.142-2.318,5.688,5.688,0,0,0-.133-.8c-.061-.186-.061-.336-.256-.372-.186.044-.186.185-.257.372a17.613,17.613,0,0,0-.274,3.1A.116.116,0,0,0,501.813,363.2Zm3.68,2.46q-.95-.7-1.964-1.3a.122.122,0,0,0-.1-.009.1.1,0,0,0-.053.08,1.069,1.069,0,0,1-.389.663.084.084,0,0,0-.035.089.086.086,0,0,0,.053.08,14.522,14.522,0,0,0,3.291,1.495.178.178,0,0,0,.159-.071.13.13,0,0,0,.018-.079C506.441,366.371,506.06,366.1,505.494,365.663Zm-3.1-.15h-.177a.366.366,0,0,0-.354.372l-.177,4.5a.366.366,0,0,0,.354.372h.54a.366.366,0,0,0,.354-.372l-.177-4.5a.366.366,0,0,0-.363-.372Z" transform="translate(-489.52 -353.706)"/>
  </g>
</svg>
