<?xml version="1.0" standalone="no"?><!DOCTYPE svg PUBLIC "-//W3C//DTD SVG 1.1//EN" "http://www.w3.org/Graphics/SVG/1.1/DTD/svg11.dtd"><svg t="1628739831561" class="icon" viewBox="0 0 1024 1024" version="1.1" xmlns="http://www.w3.org/2000/svg" p-id="4683" xmlns:xlink="http://www.w3.org/1999/xlink" width="200" height="200"><defs><style type="text/css"></style></defs><path d="M900.181333 385.792v-192a39.978667 39.978667 0 1 0-80 0v192a221.098667 221.098667 0 0 1-65.194666 157.44 221.184 221.184 0 0 1-157.397334 65.152H258.218667l112.384-112.298667a40.106667 40.106667 0 0 0-28.288-68.266666 39.808 39.808 0 0 0-28.330667 11.690666l-178.474667 178.474667a40.021333 40.021333 0 0 0 0 56.618667l183.68 183.808a39.978667 39.978667 0 1 0 56.618667-56.618667L262.4 688.384h335.189333a300.586667 300.586667 0 0 0 214.016-88.576 300.16 300.16 0 0 0 88.576-214.016z" fill="#bfbfbf" opacity=".65" p-id="4684"></path></svg>