<?xml version="1.0" standalone="no"?><!DOCTYPE svg PUBLIC "-//W3C//DTD SVG 1.1//EN" "http://www.w3.org/Graphics/SVG/1.1/DTD/svg11.dtd"><svg t="1628739762635" class="icon" viewBox="0 0 1024 1024" version="1.1" xmlns="http://www.w3.org/2000/svg" p-id="4180" xmlns:xlink="http://www.w3.org/1999/xlink" width="200" height="200"><defs><style type="text/css"></style></defs><path d="M42.016 298.016h256v86.016H128v86.016h170.016v84H128v86.016h170.016v86.016h-256V298.08z m428 0h170.016v86.016h-170.016v86.016h84q36 0 60.992 24.992T640 554.048v86.016q0 36-24.992 60.992t-60.992 24.992H384v-86.016h170.016v-86.016h-84q-36 0-60.992-24.992t-24.992-59.008V384q0-36 24.992-60.992t60.992-24.992z m340 0h86.016q36 0 60.992 24.992T982.016 384v42.016H896V384h-86.016v256H896v-42.016h86.016V640q0 36-24.992 60.992t-60.992 24.992h-86.016q-34.016 0-59.008-24.992T726.016 640v-256q0-36 24.992-60.992t59.008-24.992z" p-id="4181" fill="#bfbfbf"></path></svg>