<svg t="1609226039804" class="icon" viewBox="0 0 1024 1024" version="1.1" xmlns="http://www.w3.org/2000/svg" p-id="2695" width="200" height="200"><path d="M 257.753 464.478 c -54.8083 0 -98.655 43.8453 -98.655 98.655 l 0 265.816 c 0 54.8075 43.8461 98.6531 98.655 98.6531 l 228.821 0 l -152.092 -463.124 L 257.753 464.478 L 257.753 464.478 M 764.724 464.478 l -76.7309 0 l -150.722 463.124 l 227.453 0 c 54.8083 0 98.6541 -43.8453 98.6541 -98.6531 L 863.377 563.134 C 863.377 508.324 819.532 464.478 764.724 464.478 L 764.724 464.478 M 789.388 774.143 L 664.699 774.143 c -8.22098 0 -13.7024 -6.84998 -13.7024 -13.7024 c 0 -8.22098 6.85082 -13.7008 13.7024 -13.7008 l 124.687 0 c 8.22015 0 13.7024 6.84998 13.7024 13.7008 C 803.09 767.293 796.239 774.143 789.388 774.143 L 789.388 774.143 M 693.475 276.762 c 0 -101.393 -82.2133 -182.235 -182.236 -182.235 c -100.025 0 -182.235 80.8414 -182.235 182.235 c 0 100.025 82.2108 182.236 182.235 182.236 C 611.261 458.997 693.475 376.787 693.475 276.762 L 693.475 276.762 M 511.239 487.772 l -89.0622 75.3616 L 511.239 835.8 L 600.301 563.134 L 511.239 487.772 M 511.239 487.772" p-id="2696"></path></svg>