<?xml version="1.0" standalone="no"?><!DOCTYPE svg PUBLIC "-//W3C//DTD SVG 1.1//EN" "http://www.w3.org/Graphics/SVG/1.1/DTD/svg11.dtd"><svg t="1628650230974" class="icon" viewBox="0 0 1024 1024" version="1.1" xmlns="http://www.w3.org/2000/svg" p-id="900" xmlns:xlink="http://www.w3.org/1999/xlink" width="200" height="200"><defs><style type="text/css"></style></defs><path d="M848.7 852.6H174.9c-49.6 0-90-40.4-90-90V261.4c0-49.6 40.4-90 90-90h673.8c49.6 0 90 40.4 90 90v501.3c0 49.6-40.4 89.9-90 89.9zM174.9 231.4c-16.5 0-30 13.5-30 30v501.3c0 16.5 13.5 30 30 30h673.8c16.5 0 30-13.5 30-30V261.4c0-16.5-13.5-30-30-30H174.9z m143.7 333.9v-34.1H204.4c-7.9-0.8-11.8-6.3-11.8-16.5 0.8-9.4 5.1-14.5 13-15.3h252c7.1 0.8 11.4 5.9 13 15.3-0.8 10.2-4.7 15.7-11.8 16.5h-106v47.1c0.8 23.5-19.6 30.6-61.2 21.2-8.6-2.4-13.4-7.9-14.1-16.5 0.8-8.6 5.1-13.3 13-14.1 1.6 0 4.7 0.4 9.4 1.2 13.2 1.5 19.5 0 18.7-4.8z m-113-200.1c-7.1-0.8-11-6.3-11.8-16.5 0.8-9.4 4.7-14.5 11.8-15.3h252c7.8 0.8 12.2 5.9 13 15.3-0.8 10.2-5.1 15.7-13 16.5h-73v13h48.3c12.5 0 18.8 5.1 18.8 15.3v40c0 11.8-6.3 17.7-18.8 17.7H229.1c-14.1 0.8-20.8-4.7-20-16.5V397c0-13.3 5.9-19.6 17.7-18.8h51.8v-13h-73z m-1.2 206c1.6-0.8 8.2-5.5 20-14.1 15.7-11 24.3-16.9 25.9-17.7 9.4-4.7 16.9-3.1 22.4 4.7 4.7 7.9 3.5 15.3-3.5 22.4-11 7.8-27.1 18.4-48.3 31.8-9.4 4.7-16.9 3.1-22.4-4.7-4.7-9.4-2.7-16.9 5.9-22.4z m20-83.6c-7.1-0.8-10.6-5.5-10.6-14.1 0.8-8.6 4.7-13 11.8-13h210.8c14.1 8.6 14.1 17.7 0 27.1h-212z m16.5-81.2v15.3h37.7v-15.3h-37.7z m70.7-28.3h37.7v-13h-37.7v13z m0 42.4h37.7v-14.1h-37.7v14.1zM434 593.6c-30.6-15.7-47.9-25.1-51.8-28.3-6.3-6.3-7.5-13.7-3.5-22.4 5.5-7.1 12.5-9 21.2-5.9 22.8 10.2 40 19.6 51.8 28.3 9.4 5.5 11.8 13 7.1 22.4-6.4 8.6-14.6 10.6-24.8 5.9z m-49.4-173.1h35.3v-14.1h-35.3v14.1z m424.3-27h-264c-16.6 0-30-13.4-30-30s13.4-30 30-30h264c16.6 0 30 13.4 30 30s-13.5 30-30 30z m0 111.5h-264c-16.6 0-30-13.4-30-30s13.4-30 30-30h264c16.6 0 30 13.4 30 30s-13.5 30-30 30z m-110 111.5h-154c-16.6 0-30-13.4-30-30s13.4-30 30-30h154c16.6 0 30 13.4 30 30s-13.5 30-30 30z" fill="#2c2c2c" p-id="901"></path></svg>