<svg t="1609227046592" class="icon" viewBox="0 0 3703 1024" version="1.1" xmlns="http://www.w3.org/2000/svg" p-id="1289" width="200" height="200"><path d="M2485.42376413 650.86555436c-255.21236873 0-462.17029922 206.95792832-462.1702992 462.17029706s206.95792832 462.17029922 462.1702992 462.17029924 462.17029922-206.95792832 462.17029705-462.17029924S2740.63613288 650.86555436 2485.42376413 650.86555436zM2713.1132296 1234.2081118h-249.85076447c-31.45474563 0-55.76068633-24.30594071-55.76068635-55.76068639v-295.96056319c0-31.45474563 26.09314139-55.76068633 55.76068635-55.76068415 31.45474563 0 55.76068633 24.30594071 55.76068635 55.76068415v239.84243803h191.94543645c31.45474563 0 55.76068633 24.30594071 55.76068633 55.76068414 2.50208272 29.66754494-22.16129902 56.11812517-53.61604466 56.11812741z" p-id="1290"></path><path d="M1868.8392582-89.03585142m-509.7098576 0a509.70985761 509.70985761 0 1 0 1019.41971525 0 509.70985761 509.70985761 0 1 0-1019.41971525 0Z" p-id="1291"></path><path d="M1893.86007876 1113.39329242c0-257.35701043 172.28622013-474.32326741 407.48193372-542.59436511-95.07911676-42.89283615-200.52400321-66.84133369-311.33049392-66.8413337H1747.66700002c-421.06466377 0-765.27966738 344.21500144-765.27966733 765.27966521 0 194.44751913 159.06093109 353.50845024 353.50845024 353.50845021h879.3031184C2025.0406656 1531.95587565 1893.86007876 1337.86579534 1893.86007876 1113.39329242z" p-id="1292"></path></svg>